<svg width="32" height="29" viewBox="0 0 32 29" fill="none" xmlns="http://www.w3.org/2000/svg">
<g clip-path="url(#clip0_168_197)">
<path d="M0 10.8784C0.0325 10.7721 0.0668755 10.6663 0.0981255 10.5593C0.326875 9.78089 0.830624 9.24164 1.57937 8.9176C2.45437 8.53946 3.32937 8.15639 4.20875 7.78808C4.42625 7.69708 4.52125 7.59132 4.52125 7.33984C4.52125 6.95984 4.46687 6.65486 4.17687 6.34989C3.70187 5.84938 3.49687 5.21113 3.51125 4.51756C3.52625 3.81168 3.47 3.09535 3.5775 2.40361C3.79875 0.983252 5.10187 -0.00792917 6.61125 0.00190883C7.93125 0.0105171 9.21937 1.097 9.42375 2.45034C9.56437 3.39172 9.57875 4.34908 9.38375 5.29169C9.28188 5.78359 9.02188 6.20293 8.66438 6.56202C8.52375 6.70344 8.41438 7.48433 8.52188 7.63375C8.57186 7.68446 8.63364 7.72244 8.70188 7.74442C9.4775 8.09306 10.2512 8.44538 11.0331 8.77987C11.1547 8.82301 11.2882 8.8206 11.4081 8.77311C12.2025 8.44169 12.9875 8.08875 13.7831 7.75733C13.9675 7.67986 14.0138 7.57779 14.0219 7.38841C14.0381 6.98997 13.9806 6.66286 13.6744 6.34005C13.1994 5.84015 13 5.19822 13.015 4.50464C13.03 3.81106 12.9737 3.10334 13.0775 2.42144C13.2975 0.971568 14.5531 -0.00300949 16.0775 0.000679759C17.4262 0.00375414 18.7462 1.07487 18.9137 2.44358C19.0225 3.32962 18.9762 4.24148 18.9137 5.13612C18.875 5.69381 18.5587 6.17711 18.1469 6.57862C18.0175 6.70467 17.92 7.48679 18.0219 7.62391C18.0719 7.67433 18.1337 7.71191 18.2019 7.73336C19.01 8.08506 19.8175 8.43923 20.6312 8.77864C20.7526 8.82205 20.8857 8.82096 21.0062 8.77557C21.7725 8.45768 22.5294 8.11827 23.295 7.79853C23.4687 7.72598 23.5112 7.62514 23.5181 7.44928C23.5344 7.0533 23.4837 6.72311 23.175 6.39908C22.6906 5.89057 22.5006 5.23081 22.5131 4.53231C22.5256 3.84673 22.4819 3.15315 22.5756 2.47801C22.7731 0.996779 24.0225 0.00191019 25.5906 -0.000549316C26.9381 -0.000549316 28.2588 1.09762 28.4219 2.48478C28.5225 3.3413 28.4775 4.22119 28.4219 5.08632C28.3881 5.6397 28.0763 6.10824 27.6919 6.5159C27.5325 6.68561 27.4013 7.42346 27.5163 7.60854C27.5581 7.67679 27.6613 7.71491 27.7438 7.75119C28.6188 8.13241 29.4938 8.51671 30.3688 8.88809C31.2275 9.25025 31.7581 9.86882 31.9481 10.7696C31.9601 10.8081 31.9776 10.8448 32 10.8784V16.2279H31.0081V15.8589C31.0081 14.342 31.0081 12.8258 31.0081 11.3089C31.0081 10.5858 30.68 10.0791 30.0081 9.78704C29.3538 9.50235 28.6956 9.22258 27.9975 8.9213V10.4001C27.4275 10.4001 26.89 10.4179 26.3556 10.3872C26.2306 10.3798 26.1056 10.2181 25.9987 10.1129C25.8431 9.96228 25.7006 9.79872 25.5206 9.6075C25.29 9.83254 25.0906 10.0379 24.8812 10.2261C24.8012 10.2992 24.6981 10.3945 24.6025 10.3976C24.0844 10.4142 23.565 10.4056 23.0075 10.4056V8.9668L21.7819 9.49497C22.5863 10.2943 22.5131 11.2781 22.4769 12.2668H21.5075C21.5075 11.8979 21.5119 11.5407 21.5075 11.1847C21.4987 10.6528 21.2794 10.2009 20.8081 9.9549C20.0756 9.57675 19.3081 9.26685 18.5013 8.90469V10.3995C17.9313 10.3995 17.3938 10.4167 16.8594 10.3865C16.7344 10.3792 16.6094 10.2168 16.5031 10.1117C16.3475 9.96105 16.205 9.79749 16.0244 9.60504C15.7931 9.83008 15.5944 10.0324 15.385 10.2236C15.305 10.2968 15.2019 10.3921 15.1069 10.3952C14.5881 10.4118 14.0688 10.4031 13.5181 10.4031V8.94097C13.4038 8.97848 13.3306 8.99692 13.2556 9.02767C12.6362 9.29329 12.0131 9.55154 11.4006 9.83193C10.82 10.0982 10.4981 10.5642 10.4969 11.1926C10.489 15.0971 10.4877 19.0014 10.4931 22.9054C10.4931 22.9669 10.5 23.0247 10.505 23.1028H11.4956V13.7997H12.4781V21.6388H15.4781V22.606H12.5V26.0394H11.5175V24.0983H9.50813V23.7349C9.50813 19.697 9.515 15.6597 9.50125 11.6218C9.50125 10.8348 9.63313 10.1154 10.2169 9.48391L9 8.93728V10.4044C8.43187 10.4044 7.90438 10.4154 7.375 10.3952C7.27375 10.3908 7.16687 10.2753 7.08 10.1935C6.8925 10.0164 6.71625 9.82885 6.455 9.56138C6.24875 9.80241 6.07688 10.0348 5.87 10.231C5.75893 10.3305 5.61727 10.3906 5.4675 10.4019C4.9925 10.4222 4.51562 10.4093 4.00937 10.4093V8.91945L2.83 9.42611C2.5175 9.56138 2.19625 9.68682 1.88875 9.83562C1.33 10.1068 0.995 10.5458 0.99375 11.1693C0.986666 15.084 0.985416 18.9987 0.99 22.9134C0.99 22.9749 0.997501 23.0327 1.0025 23.1059H2V13.7973H2.9825V21.6345H8.4675V22.6023H3.00625V26.0327H2.0225V24.0983H0V10.8784ZM16.0225 8.2726C16.3744 8.62431 16.71 8.97479 17.0625 9.30375C17.1625 9.39598 17.3213 9.42672 17.5081 9.50973C17.5081 9.20229 17.4906 8.9957 17.5125 8.79402C17.5375 8.56221 17.4569 8.42202 17.2269 8.36852C17.0394 8.32548 17 8.20866 17.0037 8.03157C17.015 7.50954 16.9975 6.98628 17.0163 6.46425C17.0209 6.39849 17.0387 6.33428 17.0686 6.2753C17.0986 6.21632 17.14 6.16373 17.1906 6.12054C17.7356 5.72394 17.9962 5.19822 18.0031 4.53969C18.0106 4.0275 18.0081 3.51531 18.0031 3.0025C18.0008 2.50474 17.8162 2.02447 17.4831 1.64978C17.2257 1.34378 16.8782 1.12387 16.4884 1.02035C16.0986 0.916829 15.6858 0.934804 15.3069 1.07179C14.9228 1.20883 14.5906 1.4583 14.3549 1.78665C14.1193 2.115 13.9915 2.50649 13.9888 2.90843C13.9888 3.43107 13.9819 3.95371 13.9888 4.47574C14.0019 5.20376 14.3075 5.79158 14.9419 6.16973C15.2356 6.34497 15.5844 6.43228 15.91 6.55956V7.46035L14.9863 7.31401C14.9767 7.51501 14.9781 7.71636 14.9906 7.9172C15.0206 8.17668 14.9506 8.34762 14.6744 8.41587C14.6019 8.43493 14.5013 8.52532 14.4969 8.58865C14.4775 8.87026 14.4888 9.15372 14.4888 9.44394C14.6056 9.44394 14.7062 9.47468 14.7456 9.43902C15.1656 9.07009 15.5706 8.68949 16.0225 8.27076V8.2726ZM8.00813 9.52572C8.00813 9.21828 7.99125 9.03382 8.0125 8.85304C8.04188 8.59603 7.97688 8.41525 7.7 8.35254C7.54 8.31626 7.50375 8.21296 7.50625 8.05863C7.515 7.51631 7.5 6.97337 7.5175 6.43105C7.52376 6.37 7.54228 6.31079 7.572 6.25685C7.60172 6.20291 7.64205 6.15532 7.69062 6.11685C8.23687 5.72394 8.49625 5.19453 8.50687 4.53908C8.51562 4.0275 8.51187 3.51531 8.50687 3.00189C8.50397 2.52662 8.33542 2.06671 8.02938 1.69897C7.78738 1.38741 7.45246 1.15804 7.07145 1.04295C6.69044 0.92785 6.2824 0.932775 5.90438 1.05704C5.1225 1.30606 4.51375 2.02916 4.495 2.7627C4.48063 3.35606 4.47875 3.95064 4.495 4.54584C4.50715 5.00523 4.68006 5.44643 4.98454 5.79493C5.28902 6.14344 5.70642 6.37789 6.16625 6.45872C6.25438 6.47532 6.34125 6.50176 6.41187 6.52021V7.46466L5.49187 7.31217C5.49187 7.53045 5.47563 7.74258 5.49625 7.95287C5.51938 8.18898 5.455 8.33839 5.2075 8.40849C5.12563 8.43185 5.01 8.5247 5.00438 8.59295C4.98063 8.87333 4.99438 9.15679 4.99438 9.43902L5.10312 9.51465C5.67187 9.23857 5.99875 8.65936 6.5275 8.27813C6.875 8.62308 7.20875 8.97233 7.5625 9.3019C7.65937 9.3929 7.8125 9.4298 8.00813 9.52572ZM23.9925 9.49128C24.7169 9.30252 24.9675 8.61447 25.5419 8.28797C25.875 8.62431 26.2119 8.97233 26.5625 9.30498C26.6594 9.39536 26.8125 9.42795 26.955 9.49805C27.1094 8.68826 27.0513 8.53761 26.5056 8.25907C26.5056 7.70569 26.5163 7.14615 26.5006 6.58477C26.4944 6.34989 26.555 6.18571 26.7556 6.04368C27.1038 5.79773 27.3975 5.4534 27.4219 5.04143C27.4719 4.18921 27.535 3.31547 27.4038 2.47986C27.25 1.47946 26.25 0.86458 25.2544 0.978947C24.2363 1.09454 23.5044 1.91663 23.4931 2.95762C23.4881 3.47965 23.4844 4.0029 23.4931 4.5237C23.4975 4.98865 23.6677 5.43733 23.9739 5.79151C24.2801 6.14569 24.703 6.3829 25.1688 6.46179C25.2569 6.4784 25.3431 6.50545 25.4113 6.52328V7.46773L24.4919 7.31217C24.4919 7.54213 24.475 7.76656 24.4963 7.98853C24.52 8.23448 24.4462 8.38697 24.195 8.46752C24.1475 8.48752 24.1054 8.518 24.0718 8.5566C24.0382 8.59519 24.014 8.64087 24.0013 8.6901C23.9756 8.92806 23.9925 9.17339 23.9925 9.4919V9.49128Z" fill="black"/>
<path d="M32 21.7002C31.8969 22.2204 31.8287 22.7498 31.6875 23.2589C31.2595 24.7899 30.3673 26.1562 29.1298 27.1755C27.8924 28.1949 26.3684 28.8189 24.7612 28.9643C20.495 29.3689 16.6319 26.3597 16.0819 22.2007C15.5119 17.8923 18.5156 13.9921 22.8944 13.3569C27.1481 12.7421 31.2069 15.6787 31.8812 19.8691C31.92 20.1101 31.9625 20.3505 32.0062 20.591L32 21.7002ZM24 14.251C20.1594 14.2448 17.0062 17.321 16.9944 21.0859C16.9819 24.9301 20.0969 28.034 23.9725 28.0408C27.8575 28.0463 30.9987 24.9806 31.0094 21.1745C31.0143 20.2662 30.8366 19.366 30.4864 18.5256C30.1363 17.6852 29.6206 16.9213 28.9691 16.2778C28.3176 15.6343 27.5432 15.1239 26.6903 14.776C25.8375 14.4282 24.9232 14.2497 24 14.251V14.251Z" fill="black"/>
<path d="M6.96812 20.1409H6.02625V11.3377H6.96812V20.1409Z" fill="black"/>
<path d="M16.4688 17.1888H15.5256V11.3365H16.4688V17.1888Z" fill="black"/>
<path d="M6.97437 28.015H6.03125V25.1054H6.97437V28.015Z" fill="black"/>
<path d="M15.5325 25.1023H16.4731V28.0027H15.5325V25.1023Z" fill="black"/>
<path d="M2.01935 28.0057V27.0834H2.97497V28.0057H2.01935Z" fill="black"/>
<path d="M11.52 28.0051V27.0828H12.4744V28.0051H11.52Z" fill="black"/>
<path d="M24.4769 24.108H25.4769V25.0556H22.5275V24.1093H23.4919V20.163H22.5313V19.2099H24.4769V24.108Z" fill="black"/>
<path d="M23.5262 17.2282H24.4681V18.1708H23.5262V17.2282Z" fill="black"/>
</g>
<defs>
<clipPath id="clip0_168_197">
<rect width="32" height="29" fill="white"/>
</clipPath>
</defs>
</svg>
