<svg width="21" height="21" viewBox="0 0 21 21" fill="none" xmlns="http://www.w3.org/2000/svg">
<g clip-path="url(#clip0_168_187)">
<path d="M2.60961 19.913C2.97979 19.792 3.29769 19.6889 3.61465 19.5848C4.20148 19.3902 4.79207 19.2007 5.37466 18.9972C5.92098 18.8068 6.42774 18.8701 6.93309 19.1496C8.28308 19.898 9.80723 20.2792 11.3522 20.2549C13.3615 20.2344 15.306 19.5444 16.8755 18.295C18.4449 17.0456 19.5488 15.3087 20.0109 13.3616C21.2128 8.25032 17.8077 3.24311 12.5725 2.45015C10.8059 2.18239 9.10331 2.4403 7.47942 3.18918C7.41536 3.21872 7.35273 3.25155 7.28773 3.27875C7.05696 3.37581 6.85727 3.31907 6.76119 3.13056C6.65993 2.93221 6.74047 2.72635 6.97171 2.61099C7.74988 2.22087 8.57966 1.94253 9.43629 1.78427C14.6984 0.822969 19.6563 4.12188 20.7866 9.33073C21.9005 14.4697 18.5137 19.6837 13.359 20.7726C10.9589 21.279 8.68258 20.9481 6.52994 19.7798C6.39129 19.6994 6.23642 19.6507 6.07654 19.6371C5.91665 19.6236 5.75574 19.6456 5.60543 19.7015C4.47794 20.0823 3.34479 20.4518 2.21776 20.827C2.01054 20.8964 1.80755 20.9001 1.70912 20.6863C1.65448 20.5691 1.66579 20.3946 1.70912 20.2643C2.06328 19.1731 2.42028 18.0828 2.80129 17.001C2.93693 16.6155 2.89548 16.2915 2.7071 15.9314C1.18917 13.024 1.10581 10.0801 2.49328 7.10191C2.52624 7.03111 2.56063 6.96124 2.59924 6.89277C2.72217 6.67519 2.91526 6.6011 3.10742 6.69442C3.30852 6.79195 3.37681 6.99969 3.2586 7.23228C2.83459 8.05316 2.54053 8.93436 2.38684 9.84467C2.05716 11.8489 2.37412 13.7513 3.33961 15.5351C3.65186 16.1124 3.72203 16.6605 3.49361 17.2814C3.18089 18.1297 2.91479 18.9953 2.60961 19.913Z" fill="black"/>
<path d="M1.87584 0C2.25262 0.00656499 2.54273 0.162719 2.79894 0.418284C4.59364 2.21053 6.39054 4.00058 8.18964 5.78845C8.59985 6.19735 9.02608 6.59219 9.41416 7.02126C9.59675 7.22169 9.73491 7.45816 9.81966 7.71527C10.0335 8.39991 10.204 9.09767 10.3891 9.79121C10.5096 10.2423 10.292 10.4627 9.84227 10.3436C9.13582 10.156 8.42936 9.98488 7.73468 9.77105C7.48177 9.69333 7.25053 9.55798 7.05932 9.37574C4.83635 7.18116 2.62091 4.97908 0.413015 2.76949C-0.137076 2.22131 -0.135663 1.54324 0.413015 0.991314C0.627776 0.77467 0.844421 0.559588 1.06295 0.346069C1.27848 0.129959 1.57002 0.00584411 1.87584 0ZM2.26722 3.50477L7.53923 8.75676L8.79436 7.50894L3.52706 2.26117L2.26722 3.50477ZM1.63847 2.93737L2.96001 1.62437C2.72029 1.3899 2.46502 1.12449 2.19704 0.874082C2.00866 0.697297 1.7873 0.689793 1.60645 0.85767C1.34883 1.09635 1.09922 1.34535 0.859963 1.60186C0.703131 1.7702 0.700305 1.98732 0.856666 2.15379C1.11758 2.43561 1.39545 2.69587 1.63847 2.93737ZM9.214 8.30612L8.34741 9.17364L9.53331 9.48876L9.214 8.30612Z" fill="black"/>
<path d="M12.2838 12.8927H7.34194C7.26341 12.897 7.18468 12.8951 7.10645 12.8871C6.91288 12.8566 6.79373 12.7422 6.78195 12.5443C6.77018 12.3464 6.87615 12.216 7.06454 12.1691C7.14904 12.1528 7.2353 12.1473 7.32121 12.1527C10.6397 12.1527 13.9581 12.1527 17.2765 12.1527C17.347 12.1481 17.4177 12.1507 17.4875 12.1607C17.6882 12.2043 17.8073 12.3258 17.7988 12.5387C17.7904 12.7516 17.6656 12.8636 17.4607 12.8908C17.3902 12.8968 17.3194 12.898 17.2488 12.8946L12.2838 12.8927Z" fill="black"/>
<path d="M13.7617 14.6606H17.2468C17.3331 14.6572 17.4194 14.6615 17.5049 14.6732C17.6896 14.707 17.7946 14.8228 17.8012 15.0113C17.8087 15.2101 17.7098 15.3396 17.5144 15.3813C17.4293 15.3958 17.3429 15.4012 17.2567 15.3972C14.9195 15.3972 12.5817 15.3972 10.2435 15.3972C10.1574 15.4011 10.071 15.3959 9.98592 15.3818C9.79047 15.3391 9.69204 15.2078 9.70052 15.0104C9.70852 14.8228 9.81308 14.7056 9.99911 14.6732C10.0846 14.6618 10.171 14.6579 10.2572 14.6615C11.4249 14.6602 12.593 14.6599 13.7617 14.6606Z" fill="black"/>
<path d="M7.43896 15.0385C7.43722 14.9358 7.47549 14.8365 7.54574 14.7613C7.61599 14.6861 7.71275 14.6409 7.81573 14.6352C7.86756 14.6339 7.91915 14.6428 7.96754 14.6613C8.01593 14.6798 8.06019 14.7077 8.09778 14.7432C8.13536 14.7788 8.16555 14.8213 8.18661 14.8685C8.20768 14.9157 8.2192 14.9665 8.22053 15.0181C8.22186 15.0697 8.21297 15.1211 8.19436 15.1693C8.17576 15.2175 8.1478 15.2615 8.11209 15.299C8.07639 15.3364 8.03362 15.3664 7.98625 15.3874C7.93887 15.4084 7.88782 15.4199 7.83599 15.4212C7.73296 15.4209 7.63406 15.3809 7.56003 15.3095C7.48601 15.2382 7.44261 15.141 7.43896 15.0385V15.0385Z" fill="black"/>
</g>
<defs>
<clipPath id="clip0_168_187">
<rect width="21" height="21" fill="white"/>
</clipPath>
</defs>
</svg>
