<svg width="26" height="27" viewBox="0 0 26 27" fill="none" xmlns="http://www.w3.org/2000/svg">
<g clip-path="url(#clip0_168_182)">
<path d="M24.7334 6.32752C24.5067 5.99219 24.2169 5.83894 23.8388 5.83954C23.0039 5.83954 22.169 5.83954 21.3341 5.83954C21.0807 5.83954 20.8857 5.75661 20.7974 5.5024C20.7044 5.23738 20.8845 4.91466 21.1785 4.91106C22.1708 4.89784 23.1697 4.85517 24.1555 4.94411C25.093 5.02825 25.7716 5.83233 25.9362 6.85937C25.9751 7.09636 25.9951 7.33611 25.9958 7.57632C25.9994 11.7722 26.0054 15.9681 25.9881 20.1647C25.9851 20.5628 25.9 20.9559 25.7382 21.3191C25.4627 21.9201 24.8997 22.1671 24.27 22.1743C22.4809 22.1935 20.6918 22.1851 18.9028 22.1815C18.5944 22.1815 18.3875 21.9802 18.3869 21.7145C18.3863 21.4489 18.601 21.2446 18.9302 21.244C20.5897 21.2408 22.2491 21.2408 23.9086 21.244H24.3016C24.1525 21.1238 24.069 21.0505 23.9819 20.9844L17.552 16.1082C17.4966 16.0661 17.4381 16.027 17.3862 15.9808C17.165 15.7843 17.1334 15.527 17.3015 15.3161C17.378 15.2218 17.4879 15.1612 17.608 15.1473C17.728 15.1333 17.8487 15.1672 17.9444 15.2416C18.3869 15.5643 18.8205 15.8996 19.2564 16.2308L24.7608 20.3978C24.8371 20.4579 24.9176 20.5072 25.0375 20.5901V7.33173C24.926 7.42127 24.8353 7.48978 24.7495 7.5643C21.5824 10.3187 18.4159 13.0735 15.2501 15.8287C14.8738 16.1556 14.7241 16.1556 14.3526 15.8323L4.58123 7.33353C4.50728 7.26923 4.42976 7.20913 4.32659 7.1244C4.31048 7.19411 4.29856 7.23558 4.2914 7.27825C4.24011 7.59255 4.04093 7.78065 3.78509 7.75541C3.51256 7.72897 3.33425 7.4988 3.36287 7.16887C3.44815 6.1863 3.93359 5.47356 4.83647 5.08714C5.1116 4.97302 5.4055 4.91187 5.70298 4.90685C6.71639 4.88441 7.7302 4.88441 8.7444 4.90685C8.83792 4.91602 8.92869 4.94386 9.01142 4.98874C9.09414 5.03362 9.16718 5.09465 9.22626 5.16827C9.29842 5.26442 9.27635 5.52885 9.19227 5.6232C9.06027 5.75004 8.88618 5.82287 8.70385 5.82752C7.72046 5.84615 6.73587 5.83774 5.75248 5.83714C5.5681 5.83264 5.38471 5.86566 5.21328 5.93422C5.04185 6.00278 4.88591 6.10549 4.75477 6.23618C4.84184 6.31611 4.91758 6.38882 4.99689 6.45793C8.19059 9.23918 11.3855 12.0216 14.5816 14.8053C14.733 14.9375 14.8255 14.973 14.999 14.8209C18.1748 12.0465 21.3554 9.27644 24.5407 6.51082C24.598 6.45913 24.6528 6.40204 24.7334 6.32752Z" fill="black"/>
<path d="M7.31431 12.9633C7.31431 13.5925 7.10141 14.1388 6.62313 14.5337C6.2027 14.8798 5.7286 15.1557 5.28789 15.4808C5.17761 15.5643 5.10215 15.6862 5.07618 15.8227C5.01655 16.345 5.14894 16.8444 5.3845 17.3011C6.38578 19.2284 7.82957 20.7188 9.78562 21.6623C10.1822 21.854 10.6641 21.872 11.1089 21.9543C11.2962 21.9892 11.4 21.8762 11.5031 21.714C11.7816 21.2668 12.0595 20.8125 12.3977 20.4135C13.031 19.6767 13.8432 19.512 14.7527 19.8125C14.9042 19.8606 15.0504 19.924 15.1892 20.0018C16.4416 20.729 17.382 21.753 17.9778 23.0739C18.3952 23.994 18.2241 24.6623 17.4762 25.3293C16.5605 26.154 15.4456 26.7212 14.2434 26.9742C13.95 27.0343 13.6089 26.988 13.3131 26.9051C7.98283 25.4105 4.04746 22.1671 1.46464 17.2494C0.826622 16.0487 0.349355 14.7682 0.045308 13.4411C-0.00920196 13.2197 -0.0157114 12.9891 0.0262241 12.765C0.300975 11.5079 0.897177 10.345 1.75566 9.39182C2.30729 8.77343 2.97581 8.56971 3.71708 8.87139C5.39225 9.55348 6.63924 10.6911 7.23082 12.4645C7.28628 12.6202 7.28867 12.7957 7.31431 12.9633ZM10.9521 22.9285C10.6271 22.8618 10.2406 22.8125 9.87328 22.7013C8.86425 22.3954 8.0198 21.7999 7.24096 21.104C6.13173 20.116 5.13522 19.0319 4.52038 17.6502C4.20311 16.9375 4.02719 16.1941 4.18582 15.4032C4.25023 15.0799 4.40468 14.8624 4.7136 14.7013C5.14949 14.465 5.56431 14.1911 5.95342 13.8828C6.34165 13.5823 6.47762 13.1544 6.33032 12.6755C6.25084 12.4077 6.13782 12.1512 5.99398 11.9123C5.47216 11.0709 4.75236 10.4345 3.90195 9.94711C3.72661 9.854 3.54188 9.78006 3.35092 9.72656C3.01815 9.62259 2.73727 9.69832 2.49097 9.96695C1.77898 10.7279 1.26995 11.6583 1.01141 12.6713C0.950419 12.9188 0.947153 13.1771 1.00186 13.4261C1.28238 14.5933 1.70965 15.7196 2.2733 16.7776C4.73328 21.488 8.49152 24.5902 13.5946 26.0096C13.7827 26.0652 13.9815 26.0734 14.1736 26.0337C15.1428 25.8006 16.0425 25.3372 16.7976 24.6821C17.3242 24.2242 17.394 23.9609 17.0791 23.3245C16.594 22.3422 15.8516 21.5122 14.9322 20.9243C14.7629 20.8204 14.5814 20.7382 14.3919 20.6797C13.9041 20.518 13.4443 20.5968 13.1199 21.0036C12.7924 21.4157 12.5007 21.8554 12.248 22.3179C12.1049 22.5793 11.9456 22.7548 11.6618 22.8095C11.4471 22.8504 11.2318 22.8822 10.9533 22.9285H10.9521Z" fill="black"/>
<path d="M16.7344 7.32211C16.2657 7.76201 15.7152 7.95011 15.095 7.94471C14.3138 7.9387 13.7025 7.60817 13.3268 6.92307C12.8432 6.03846 12.7251 5.09976 13.1348 4.15264C13.7478 2.73798 15.5936 2.34615 16.7129 3.40625C16.9574 3.63822 17.1137 3.99278 17.2359 4.31911C17.332 4.57391 17.1483 4.79988 16.9002 4.85997C16.7868 4.88765 16.6671 4.8695 16.5668 4.80942C16.4665 4.74933 16.3935 4.65208 16.3635 4.53846C16.1846 3.95372 15.7254 3.8173 15.2089 3.76803C14.7277 3.71995 14.3591 3.92608 14.0925 4.31971C13.6751 4.9387 13.7753 6.14062 14.2911 6.68149C14.6633 7.07091 15.1224 7.0637 15.593 6.93689C16.0343 6.8167 16.2704 6.50841 16.3325 6.05769C16.339 6.00781 16.3414 5.95793 16.3474 5.90805C16.3808 5.63942 16.5322 5.48737 16.8 5.48737C17.0678 5.48737 17.2175 5.64122 17.2562 5.90805C17.2749 6.08666 17.3058 6.26376 17.3487 6.4381C17.4399 6.7506 17.6468 6.94891 17.9778 6.99939C18.3279 7.05288 18.601 6.91406 18.74 6.60516C18.8789 6.29627 19.031 5.95132 19.0495 5.61598C19.0858 4.96093 19.1002 4.29026 19.0012 3.64543C18.8676 2.77223 18.3398 2.10577 17.5973 1.64723C16.3509 0.878004 15.0097 0.711538 13.622 1.17428C12.5486 1.53485 11.7679 2.26442 11.3731 3.33774C10.8251 4.83413 10.8299 6.33293 11.629 7.74158C12.381 9.0667 13.5731 9.74999 15.0795 9.80408C15.6568 9.82511 16.2472 9.73737 16.8179 9.62379C17.3886 9.51021 17.8633 9.20312 18.2587 8.77043C18.4972 8.5066 18.7781 8.48136 18.9845 8.68629C19.1908 8.89122 19.1729 9.14122 18.9373 9.40384C18.2742 10.143 17.4214 10.515 16.4648 10.6659C15.2197 10.8642 14.0085 10.7734 12.8718 10.1695C11.2968 9.33232 10.416 7.99939 10.156 6.24338C9.99678 5.22984 10.0863 4.19242 10.4166 3.22175C11.1113 1.19711 12.9601 -0.0594951 15.1278 -0.00480762C15.9204 0.0156251 16.6879 0.146034 17.4125 0.480168C19.0405 1.23077 19.9428 2.48918 20.0305 4.30829C20.0704 5.13221 20.0472 5.95192 19.7257 6.72956C19.2606 7.85396 18.1621 8.27103 17.2025 7.68629C17.0421 7.59555 16.9062 7.46033 16.7344 7.32211Z" fill="black"/>
<path d="M7.83795 19.3624C7.70019 19.2284 7.50637 19.122 7.46642 18.9778C7.45114 18.89 7.45479 18.8 7.47712 18.7139C7.49945 18.6277 7.53994 18.5474 7.59583 18.4784C7.80157 18.253 8.06755 18.0835 8.31146 17.8918C9.37894 17.0425 10.4468 16.1937 11.5151 15.3456C11.5735 15.2915 11.6382 15.2447 11.7077 15.2061C11.9284 15.1052 12.1389 15.1196 12.2963 15.3263C12.4538 15.5331 12.4329 15.7356 12.2695 15.9273C12.2217 15.9774 12.1694 16.0228 12.1132 16.0631C10.8346 17.0795 9.55526 18.0944 8.27508 19.1076C8.15998 19.1953 8.02342 19.2542 7.83795 19.3624Z" fill="black"/>
</g>
<defs>
<clipPath id="clip0_168_182">
<rect width="26" height="27" fill="white"/>
</clipPath>
</defs>
</svg>
