<svg width="24" height="24" viewBox="0 0 24 24" fill="none" xmlns="http://www.w3.org/2000/svg">
<path d="M8.92133 22.9988V22.6141C8.92133 20.7971 8.92133 18.9801 8.92133 17.1631C8.92133 16.1124 9.54133 15.4983 10.6002 15.4977C11.5091 15.4977 12.4181 15.4977 13.3278 15.4977C14.2813 15.5015 14.9188 16.1381 14.9207 17.0904C14.9232 18.9283 14.9232 20.7662 14.9207 22.604V22.995C15.0348 23.0032 15.1251 23.0151 15.2153 23.0151C16.2704 23.0151 17.3261 23.0188 18.3818 23.0151C19.3115 23.0151 19.9572 22.3678 19.9578 21.4374C19.9603 18.3778 19.9603 15.3181 19.9578 12.2585C19.9578 12.1645 19.9522 12.0705 19.9578 11.9765C19.9816 11.6946 20.1816 11.4934 20.4361 11.4878C20.7007 11.4815 20.9119 11.6914 20.9376 11.989C20.9439 12.0617 20.9376 12.135 20.9376 12.2083C20.9376 15.2371 20.9376 18.2654 20.9376 21.2933C20.9376 22.948 19.8901 23.9975 18.242 23.9987C17.03 23.9987 15.818 23.9987 14.606 23.9987C14.0976 23.9987 13.9377 23.8365 13.9377 23.3189C13.9377 21.2722 13.9377 19.2255 13.9377 17.1787C13.9377 16.6311 13.7823 16.4789 13.2262 16.4789C12.3277 16.4789 11.4291 16.4789 10.5306 16.4789C10.0836 16.4789 9.90367 16.6581 9.90367 17.1054C9.90367 19.1622 9.90367 21.2194 9.90367 23.277C9.90367 23.8515 9.75698 23.9975 9.18086 23.9975C7.95842 23.9975 6.73576 23.9975 5.5129 23.9975C3.98829 23.9944 2.90189 22.9142 2.90063 21.3954C2.89813 18.3149 2.89813 15.2341 2.90063 12.1532C2.89494 12.0695 2.89852 11.9855 2.91129 11.9026C2.96959 11.652 3.12945 11.4909 3.39212 11.4916C3.65479 11.4922 3.81778 11.6501 3.87107 11.9038C3.88557 12.0076 3.88935 12.1126 3.88235 12.2171C3.88235 15.2559 3.88235 18.2946 3.88235 21.3334C3.88235 22.4111 4.49044 23.0144 5.57496 23.0151C6.64068 23.0151 7.70641 23.0151 8.77213 23.0151C8.80535 23.0151 8.83607 23.0075 8.92133 22.9988Z" fill="black"/>
<path d="M16.9487 4.68033C16.9487 4.1628 16.9487 3.64527 16.9487 3.12711C16.9487 2.63214 17.1142 2.4636 17.6007 2.46297C18.4996 2.46297 19.3982 2.46297 20.2963 2.46297C20.769 2.46297 20.9395 2.63277 20.9401 3.10331C20.9401 4.85765 20.9495 6.61199 20.9326 8.36633C20.9326 8.66833 21.0292 8.86757 21.2354 9.07057C22.0635 9.88133 22.8791 10.7059 23.6985 11.526C23.7844 11.6021 23.8604 11.6886 23.9248 11.7835C23.9863 11.8766 24.0112 11.9891 23.9948 12.0994C23.9783 12.2098 23.9217 12.3101 23.8358 12.3813C23.7624 12.458 23.6639 12.5059 23.5583 12.5164C23.4526 12.5268 23.3466 12.4991 23.2596 12.4383C23.1576 12.3653 23.0641 12.2813 22.9807 12.1877C19.4116 8.62217 15.8439 5.05543 12.2777 1.48743C12.1837 1.39282 12.1279 1.25999 12.0194 1.09083C11.6552 1.4749 11.3925 1.7675 11.1123 2.04694C7.73753 5.43741 4.36149 8.82663 0.984202 12.2146C0.932797 12.2666 0.883271 12.3211 0.828104 12.3687C0.595526 12.5661 0.316559 12.5567 0.127237 12.3549C0.0419247 12.2614 -0.00345783 12.1382 0.000757756 12.0117C0.00497334 11.8852 0.0584547 11.7653 0.149806 11.6776C0.59302 11.2203 1.04564 10.7717 1.49512 10.3199L11.4483 0.332072C11.8915 -0.112779 12.0539 -0.111525 12.5078 0.342097C13.8677 1.69962 15.226 3.0584 16.5826 4.41843C16.674 4.51835 16.7602 4.62291 16.8409 4.73171L16.9487 4.68033ZM19.9415 7.78238V3.45919H17.9354C17.9354 3.81569 17.9781 4.1628 17.9273 4.49613C17.79 5.40274 18.079 6.09383 18.8118 6.65209C19.2061 6.95847 19.5265 7.36573 19.9415 7.78238Z" fill="black"/>
<path d="M11.9248 7.95656H7.66502C7.56048 7.96174 7.4557 7.95902 7.35157 7.94842C7.09517 7.9102 6.90146 7.69278 6.91901 7.45344C6.93719 7.19217 7.09078 7.03553 7.34467 6.98353C7.42777 6.97239 7.51176 6.96945 7.59543 6.97475H16.2428C16.2741 6.97475 16.3055 6.97475 16.3362 6.97475C16.7023 6.98353 16.9361 7.18214 16.9274 7.476C16.9198 7.76108 16.6935 7.9528 16.3437 7.95406C15.2153 7.95719 14.0869 7.95406 12.9585 7.95406L11.9248 7.95656Z" fill="black"/>
</svg>
