<svg width="19" height="22" viewBox="0 0 19 22" fill="none" xmlns="http://www.w3.org/2000/svg">
<g clip-path="url(#clip0_168_134)">
<path d="M18.9987 10.9962C18.9987 13.8868 18.9987 16.7775 18.9987 19.6682C18.9987 21.2129 18.2149 21.9994 16.6743 22H5.84569C4.41623 22 3.5971 21.1809 3.5971 19.7558C3.5971 18.1983 3.5971 16.6412 3.5971 15.0845C3.59259 14.9885 3.59452 14.8923 3.60288 14.7966C3.6395 14.5336 3.85986 14.3326 4.10399 14.3486C4.3886 14.3653 4.55371 14.531 4.59804 14.8068C4.60769 14.9025 4.60963 14.9988 4.60382 15.0948C4.60382 16.6839 4.60382 18.2732 4.60382 19.8627C4.60382 20.614 4.99637 20.9985 5.76025 20.9985C9.45523 20.9985 13.1504 20.9985 16.8458 20.9985C17.6033 20.9985 17.9945 20.6101 17.9945 19.857C17.9945 13.9583 17.9945 8.05984 17.9945 2.16161C17.9945 1.38924 17.6091 1.00977 16.824 1.00977C13.1406 1.00977 9.45715 1.00977 5.77374 1.00977C4.99123 1.00977 4.61089 1.3886 4.60961 2.16673C4.60961 3.39322 4.60961 4.61992 4.60961 5.84683C4.60961 5.94282 4.61475 6.0388 4.60961 6.13479C4.58391 6.43554 4.3629 6.64671 4.09114 6.63839C3.96032 6.63421 3.83645 6.57876 3.74646 6.48409C3.65647 6.38943 3.60764 6.2632 3.61059 6.13287C3.60352 4.7142 3.57333 3.29424 3.62408 1.87749C3.66198 0.808204 4.53958 0.0147189 5.62019 0.0115193C9.41197 0.000427601 13.2035 0.000427601 16.9949 0.0115193C18.1648 0.0153588 19.0045 0.90739 19.0064 2.1021C19.0038 5.06614 19.0013 8.03083 18.9987 10.9962Z" fill="black"/>
<path d="M10.0249 10.1611L8.88453 9.04636C8.7085 8.87423 8.63333 8.67586 8.74062 8.43909C8.89353 8.10122 9.29056 8.05195 9.59316 8.34695C10.1669 8.90686 10.713 9.49558 11.304 10.0363C11.987 10.6621 11.9625 10.8458 11.3085 11.4492C10.6808 12.029 10.0936 12.6522 9.48587 13.2531C9.19741 13.5391 8.89353 13.5673 8.67509 13.3382C8.45666 13.1091 8.4997 12.832 8.77531 12.5531C9.17299 12.1505 9.57389 11.7506 9.97221 11.3481C9.98442 11.3359 9.98506 11.3123 10.0063 11.247H0.727266C0.631026 11.2517 0.534559 11.2487 0.438802 11.238C0.177322 11.1958 -0.0192689 10.9699 0.00193218 10.7261C0.0250606 10.4599 0.183104 10.2987 0.445227 10.2526C0.551875 10.2408 0.659335 10.238 0.766455 10.2443H9.97928L10.0249 10.1611Z" fill="black"/>
</g>
<defs>
<clipPath id="clip0_168_134">
<rect width="19" height="22" fill="white"/>
</clipPath>
</defs>
</svg>
