<svg width="31" height="31" viewBox="0 0 31 31" fill="none" xmlns="http://www.w3.org/2000/svg">
<g clip-path="url(#clip0_168_127)">
<path d="M2.05859 31C2.05859 30.3945 2.06001 29.7891 2.06283 29.1836C2.06283 27.8104 2.72885 27.0457 4.12809 26.8483V26.4753C4.12809 25.2359 4.06451 23.9929 4.30367 22.7662C5.23206 18.0105 7.96656 14.7813 12.5072 13.0787C12.8952 12.9381 13.2923 12.8236 13.6957 12.736C13.8967 12.6906 13.9433 12.6059 13.9518 12.4133C13.9984 11.3719 14.587 10.5691 15.5496 10.411C16.196 10.3071 16.8548 10.3055 17.5017 10.4062C18.462 10.557 19.0838 11.3877 19.1159 12.397C19.1219 12.604 19.1764 12.6779 19.3859 12.7354C24.3673 14.0941 27.4647 17.2841 28.678 22.3055C28.9838 23.577 28.9553 24.8872 28.9372 26.1889C28.9372 26.4081 28.9372 26.6273 28.9372 26.858C29.7473 26.9119 30.3564 27.2527 30.7403 27.9418C30.8511 28.1404 30.9146 28.3656 31 28.5781V31H2.05859ZM5.20158 24.2599H27.8679C27.6808 18.5031 22.7571 13.2446 16.1739 13.4414C9.94604 13.6321 5.37172 18.7302 5.20158 24.2599V24.2599ZM29.9586 29.9513C29.9586 29.5553 29.9846 29.1727 29.9513 28.7949C29.9416 28.6213 29.8814 28.4544 29.7782 28.3146C29.6749 28.1747 29.5331 28.0681 29.3701 28.0078C29.1514 27.9363 28.9218 27.9044 28.692 27.9133C20.5109 27.9085 12.3296 27.9067 4.14807 27.9079C3.6316 27.9079 3.20535 28.2142 3.13633 28.7216C3.08184 29.1224 3.12543 29.5372 3.12543 29.9513H29.9586ZM27.8873 25.3316H5.18221V26.8344H27.8873V25.3316ZM15.0247 12.3855H18.0563C18.049 11.8405 17.6742 11.4095 17.1608 11.3828C16.7389 11.3592 16.316 11.3592 15.8942 11.3828C15.7711 11.3912 15.6509 11.4238 15.5405 11.4788C15.4301 11.5338 15.3317 11.6101 15.2508 11.7033C15.17 11.7964 15.1085 11.9047 15.0696 12.0218C15.0308 12.1389 15.0156 12.2625 15.0247 12.3855V12.3855Z" fill="black"/>
<path d="M2.17966 0C2.52417 0.156211 2.86565 0.321505 3.21622 0.464395C3.33937 0.50564 3.46919 0.523304 3.59888 0.516465C7.82565 0.516465 12.0518 0.529785 16.278 0.51041C17.2989 0.491939 18.3034 0.769755 19.1697 1.31024C22.2485 3.2102 25.3455 5.07928 28.4334 6.9641C29.4124 7.5617 29.72 8.6352 29.2023 9.5991C28.7476 10.4468 27.7807 10.7943 26.7768 10.4613C24.7703 9.79527 22.7648 9.12704 20.7603 8.45658C19.7667 8.12539 18.7713 7.80086 17.7832 7.45635C17.3281 7.29149 16.846 7.21385 16.3622 7.22748C15.8814 7.24504 15.4001 7.23172 14.8909 7.23172C15.0459 7.90863 14.995 8.525 14.6553 9.10201C14.1074 10.0326 13.2894 10.5049 12.2165 10.5249C11.4506 10.5388 10.6835 10.5249 9.91573 10.5285C9.16374 10.5285 8.46806 10.7459 7.8971 11.226C6.86235 12.0967 5.68108 12.4751 4.34481 12.4018C4.10868 12.3885 3.98153 12.4509 3.86044 12.6828C3.46991 13.4499 2.82509 13.8888 1.96048 13.93C1.30718 13.9615 0.651455 13.93 -0.00366211 13.9258V0H2.17966ZM9.60089 5.24033C10.5987 6.05832 11.7364 6.23814 12.9516 6.20363C14.1667 6.16912 15.3934 6.18002 16.6134 6.20363C17.0254 6.20974 17.4344 6.27478 17.828 6.39678C19.5233 6.9417 21.212 7.51387 22.9024 8.07817C24.3047 8.54559 25.7086 9.01442 27.1141 9.48467C27.6923 9.6766 28.2039 9.45197 28.371 8.93975C28.5151 8.50078 28.3323 8.10783 27.8449 7.81115C24.7368 5.91846 21.6297 4.02475 18.5237 2.13004C17.9072 1.74344 17.1927 1.54172 16.4651 1.54879C12.4296 1.55969 8.39419 1.55363 4.35571 1.55363H4.10929V11.3489C5.27845 11.4518 6.27626 11.2278 7.1445 10.5013C7.98126 9.80254 8.96091 9.48225 10.0508 9.49375C10.7265 9.50102 11.4022 9.49859 12.0785 9.49375C12.2598 9.49402 12.4408 9.4778 12.6192 9.44531C13.5128 9.27094 14.1383 8.31006 13.8834 7.529C13.815 7.31951 13.7138 7.22627 13.4747 7.22627C12.7481 7.21658 12.0216 7.22627 11.3029 7.13061C10.4552 7.02041 9.70019 6.63412 9.01782 6.10131L9.60089 5.24033ZM1.04622 12.9062C1.33927 12.9062 1.6196 12.9183 1.89812 12.9062C2.55202 12.8729 3.08726 12.3437 3.08907 11.6874C3.09755 8.54942 3.09755 5.41148 3.08907 2.27353C3.08907 1.7492 2.75606 1.26119 2.25534 1.13041C1.86845 1.0293 1.45188 1.04201 1.0444 1.00387L1.04622 12.9062Z" fill="black"/>
<path d="M15.4394 14.521C15.4794 14.8709 15.5151 15.187 15.5551 15.543C13.2912 15.8227 11.358 16.7691 9.75591 18.4335L9.37749 18.0775L9.00513 17.7281C10.7664 15.8911 12.8904 14.8394 15.4394 14.521Z" fill="black"/>
<path d="M7.16571 20.4424L7.43636 19.9054L8.33608 20.3898L8.09813 20.8838L7.16571 20.4424Z" fill="black"/>
</g>
<defs>
<clipPath id="clip0_168_127">
<rect width="31" height="31" fill="white"/>
</clipPath>
</defs>
</svg>
