<svg width="281" height="185" viewBox="0 0 281 185" fill="none" xmlns="http://www.w3.org/2000/svg">
<g clip-path="url(#clip0_36_373)">
<path d="M24.6723 105.412V109.373C24.6723 133.491 24.7053 157.609 24.6228 181.727C24.6228 184.164 25.1729 185 27.7749 185C102.956 184.923 178.137 184.901 253.319 184.934H256.509V181.325C256.509 138.59 256.528 95.8631 256.564 53.1432C256.582 51.336 256.993 49.5545 257.769 47.9224C265.041 32.9256 272.435 17.9894 279.773 3.03118C280.186 2.18948 280.527 1.31476 280.984 0.2805C280.076 0.181475 279.625 0.0934556 279.179 0.0934556C256.896 0.0934556 234.615 0.0769535 212.336 0.0439453C210.636 0.0439453 209.954 0.819636 209.294 2.17297C202.648 15.7448 195.921 29.2727 189.314 42.8831C188.439 44.6821 187.46 45.4192 185.386 45.4137C158.247 45.3367 131.109 45.3367 103.97 45.4137C101.731 45.4137 100.758 44.561 99.8609 42.718C93.3641 29.3772 86.7298 16.108 80.2826 2.75063C79.2924 0.687613 78.1262 0.0384493 75.8817 0.0494521C51.765 0.12097 27.6539 0.093467 3.5372 0.0879657H-0.0384979C0.627131 1.60084 1.06171 2.59658 1.50179 3.55382C8.69719 18.182 15.8651 32.8211 23.1265 47.4162C23.5485 48.1577 23.7818 48.9916 23.8058 49.8444C23.8298 50.6973 23.6437 51.5429 23.264 52.307C16.0209 68.8771 8.80171 85.4839 1.60632 102.127C1.18823 103.101 0.814166 104.091 0.286063 105.428L24.6723 105.412Z" fill="white"/>
<path d="M24.6723 105.412H0.297051C0.847158 104.091 1.19922 103.101 1.6173 102.111C8.8347 85.4785 16.0668 68.8552 23.3135 52.241C23.6932 51.477 23.8793 50.6314 23.8553 49.7785C23.8313 48.9257 23.598 48.0918 23.176 47.3503C15.9146 32.7552 8.74669 18.1161 1.55129 3.48793C1.0837 2.53069 0.676631 1.53494 0.0110016 0.0220598H3.59769C27.7144 0.0220598 51.8256 0.0550807 75.9422 -0.0164371C78.1427 -0.0164371 79.3309 0.621724 80.3431 2.68474C86.7903 16.0421 93.4246 29.3113 99.9214 42.6522C100.818 44.4951 101.792 45.3533 104.031 45.3478C131.169 45.2525 158.308 45.2525 185.446 45.3478C187.52 45.3478 188.5 44.6162 189.374 42.8172C195.976 29.2288 202.709 15.701 209.354 2.10708C210.014 0.753746 210.696 -0.0274452 212.396 -0.0219438C234.676 0.0330699 256.957 0.049572 279.24 0.0275665C279.685 0.0275665 280.136 0.115586 281.044 0.214611C280.587 1.26537 280.246 2.14009 279.834 2.9653C272.49 17.9235 265.096 32.8597 257.83 47.8565C257.054 49.4886 256.643 51.2701 256.625 53.0773C256.559 95.8119 256.54 138.539 256.57 181.259V184.868H253.346C178.165 184.868 102.984 184.89 27.8024 184.934C25.1784 184.934 24.6448 184.098 24.6503 181.661C24.7328 157.543 24.6998 133.425 24.6998 109.307L24.6723 105.412ZM186.233 71.4628L185.722 71.4188C181.381 81.5028 176.92 91.5428 172.761 101.676C171.661 104.427 170.352 105.423 167.26 105.412C123.802 105.28 80.3431 105.324 36.8847 105.324H33.4905V176.071H186.233V71.4628ZM195.2 176.11H247.57V54.2601H195.2V176.11ZM183.67 54.183C182.569 54.1225 181.761 54.04 180.969 54.04C132.104 54.04 83.2403 54.0253 34.3762 53.996C32.5608 53.996 31.6586 54.4911 30.916 56.2295C25.5414 68.8827 20.0404 81.4478 14.5888 94.0514C14.2698 94.7831 14.0387 95.5643 13.6701 96.6976H16.6242C65.305 96.6976 113.986 96.7141 162.667 96.7471C164.713 96.7471 165.714 96.1365 166.517 94.2275C171.804 81.7559 177.228 69.3393 182.602 56.9007C182.932 56.092 183.252 55.2833 183.67 54.183ZM13.9672 8.80775C14.3303 9.70997 14.4733 10.1281 14.6658 10.5242C20.0844 21.5269 25.5469 32.4967 30.894 43.5324C31.6421 45.0783 32.6433 45.3258 34.1341 45.3258C52.2656 45.2928 70.4008 45.2928 88.5397 45.3258C89.3263 45.3258 90.1185 45.2213 91.2902 45.1388C90.7676 43.978 90.4045 43.0813 89.9754 42.2176C84.931 31.9575 79.815 21.725 74.864 11.4099C73.9398 9.48992 72.9056 8.76374 70.7327 8.77474C52.7772 8.86826 34.8273 8.82976 16.8718 8.82976L13.9672 8.80775ZM198.06 45.1498C198.814 45.2213 199.161 45.2873 199.535 45.2928C215.488 45.2928 231.397 45.2653 247.333 45.3478C249.066 45.3478 249.704 44.5336 250.359 43.2023C255.58 32.5241 260.855 21.868 266.103 11.2008C266.417 10.5682 266.653 9.89702 267.011 9.04981C266.433 8.93598 265.849 8.85699 265.261 8.81325C249.424 8.81325 233.581 8.76924 217.743 8.87927C217.165 8.946 216.609 9.14183 216.117 9.45225C215.625 9.76268 215.209 10.1798 214.899 10.6727C209.459 21.4444 204.156 32.2931 198.831 43.1308C198.561 43.6754 198.39 44.2806 198.06 45.1498Z" fill="#5C6671"/>
<path d="M186.233 71.4629V176.071H33.485V105.346H36.8792C80.3376 105.346 123.796 105.302 167.254 105.434C170.363 105.434 171.655 104.438 172.756 101.698C176.925 91.5429 181.376 81.5029 185.716 71.4409L186.233 71.4629Z" fill="#F5F5F5"/>
<path d="M195.2 176.11V54.2598H247.57V176.11H195.2Z" fill="#F5F5F5"/>
<path d="M183.67 54.1832C183.252 55.2504 182.954 56.0866 182.608 56.9008C177.233 69.3394 171.809 81.756 166.523 94.2276C165.714 96.1366 164.713 96.7472 162.672 96.7472C113.988 96.6849 65.3068 96.6684 16.6297 96.6977H13.6757C14.0607 95.5645 14.2753 94.7832 14.5943 94.0516C20.0459 81.4479 25.547 68.8663 30.9215 56.2296C31.6642 54.4912 32.5718 53.9961 34.3817 53.9961C83.2458 54.0474 132.11 54.0621 180.974 54.0401C181.761 54.0456 182.558 54.1281 183.67 54.1832Z" fill="#F5F5F5"/>
<path d="M13.9672 8.80744H16.8828C34.8382 8.80744 52.7882 8.84596 70.7437 8.75244C72.9166 8.75244 73.9508 9.46761 74.875 11.3876C79.826 21.6916 84.942 31.9242 89.9865 42.1953C90.4155 43.059 90.7786 43.9557 91.3012 45.1165C90.1185 45.199 89.3263 45.3035 88.5507 45.3035C70.4118 45.3035 52.2766 45.3035 34.1451 45.3035C32.6543 45.3035 31.6531 45.056 30.905 43.5101C25.558 32.5073 20.0954 21.5046 14.6769 10.5019C14.4733 10.1278 14.3303 9.70967 13.9672 8.80744Z" fill="#F5F5F5"/>
<path d="M198.06 45.1498C198.39 44.2751 198.561 43.6754 198.831 43.1253C204.156 32.2931 209.459 21.4444 214.899 10.6672C215.209 10.1742 215.625 9.75714 216.117 9.44671C216.609 9.13628 217.165 8.94048 217.743 8.87374C233.581 8.76371 249.424 8.79671 265.261 8.80771C265.849 8.85145 266.433 8.93045 267.011 9.04428C266.659 9.89149 266.417 10.5626 266.103 11.1953C260.855 21.8625 255.58 32.5186 250.359 43.1968C249.704 44.5281 249.066 45.3478 247.333 45.3423C231.38 45.2598 215.466 45.2928 199.535 45.2873C199.177 45.2873 198.814 45.2213 198.06 45.1498Z" fill="#F5F5F5"/>
</g>
<defs>
<clipPath id="clip0_36_373">
<rect width="281" height="185" fill="white"/>
</clipPath>
</defs>
</svg>
