<svg width="140" height="139" viewBox="0 0 140 139" fill="none" xmlns="http://www.w3.org/2000/svg">
<g clip-path="url(#clip0_36_510)">
<path d="M29.0686 120.017C25.3288 116.338 21.6163 113.088 18.4007 109.415C13.1978 103.492 10.3906 96.4676 9.94253 88.5468C9.90131 88.2689 9.80452 88.0022 9.6579 87.7625C9.51129 87.5227 9.31785 87.3148 9.08909 87.1511C-0.496825 80.6107 -2.24332 70.0657 2.68832 59.685L6.15693 61.1749C2.77062 69.1778 2.73404 76.5332 9.88156 82.9489C11.7104 68.4086 19.6534 58.119 31.6045 50.414C26.6333 42.9766 24.646 34.9068 26.2431 26.1132C27.4928 19.2231 30.7938 13.3972 35.8931 8.57783C45.4942 -0.498495 60.2769 -2.62998 72.1184 3.43914C79.211 7.08791 84.3377 12.5976 87.34 19.9711C90.3179 27.2899 90.4337 34.7486 87.9069 42.1952C90.5251 43.5057 90.5648 43.4996 92.5216 41.8364C96.6546 38.3305 101.391 36.3784 106.847 36.3967C111.114 36.3967 115.366 36.4818 119.624 36.5426C120.776 36.5609 121.572 37.5096 121.49 38.8566C121.288 42.1009 120.27 45.023 117.719 47.2001C116.564 48.1822 115.281 49.0093 114.092 49.964C113.047 50.8093 112.062 51.7306 110.898 52.7523C111.864 53.3848 112.568 53.85 113.275 54.3091C121.81 59.8887 126.885 67.8978 129.43 77.6065C129.789 78.9809 130.295 79.6225 131.755 79.3883C132.413 79.3305 133.075 79.3244 133.733 79.3701C136.781 79.3701 137.863 80.1637 138.781 83.1253C140.707 89.3464 140.216 95.5311 138.415 101.673C138.12 102.784 137.653 103.841 137.031 104.808C136.117 106.131 134.748 106.718 133.069 106.672C130.734 106.608 128.396 106.629 126.059 106.672C125.62 106.672 124.995 106.864 124.781 107.183C121.797 111.656 117.677 114.949 113.415 118.081C112.422 118.807 112.196 119.382 112.733 120.55C114.671 124.782 116.485 129.063 118.335 133.345C119.792 136.689 118.317 138.958 114.644 138.973C110.377 138.973 106.109 138.942 101.842 138.991C100.087 139.009 98.8522 138.34 97.9744 136.817C96.6607 134.533 95.1977 132.335 93.9206 130.036C93.3415 128.99 92.7959 128.765 91.6559 129.188C84.4481 131.854 76.7823 133.071 69.1008 132.767C62.7245 132.536 56.4609 131.627 50.4198 129.562C48.9293 129.054 48.2862 129.401 47.5821 130.672C46.433 132.752 45.0736 134.719 43.8605 136.753C42.9796 138.243 41.7574 138.985 40.0017 138.973C35.5822 138.939 31.1626 138.991 26.743 138.952C23.4695 138.924 21.9943 136.638 23.2683 133.618C25.2373 128.984 27.2307 124.335 29.0686 120.017ZM114.747 135.12C114.424 134.327 114.229 133.816 114.016 133.317C112.305 129.314 110.593 125.312 108.88 121.313C107.694 118.543 108.042 117.202 110.404 115.408C110.806 115.104 111.209 114.8 111.623 114.496C115.711 111.455 119.582 108.217 122.291 103.786C122.645 103.209 123.715 102.82 124.474 102.789C127.217 102.671 129.96 102.713 132.703 102.759C133.618 102.759 134.13 102.455 134.392 101.603C135.858 96.7383 136.647 91.8367 135.632 86.7771C134.925 83.2804 134.925 83.2864 131.341 83.2652C130.533 83.2652 129.695 83.326 128.902 83.1496C126.848 82.6844 126.278 81.0212 125.83 79.2181C124.199 72.7233 121.493 66.7514 116.567 62.0749C114.235 59.8613 111.483 58.0795 108.847 56.2034C106.765 54.7226 106.234 53.0959 107.713 51.0617C108.74 49.6478 110.063 48.4285 111.37 47.2457C112.455 46.2636 113.809 45.5794 114.857 44.5547C115.906 43.53 116.656 42.2469 117.741 40.8087C115.622 40.6718 114.059 40.6414 112.513 40.4559C105.503 39.6076 99.0564 40.6414 93.8048 45.9078C92.7715 46.9477 91.342 47.267 89.8424 46.8869C88.8183 46.6284 87.782 46.4156 87.0596 46.2514C85.0174 48.9059 83.2801 51.609 81.0947 53.8865C78.9093 56.1639 76.2514 58.0521 73.7582 60.1563H80.223V63.8689H34.808V60.1289H41.7848C39.38 58.0947 36.9903 56.0332 34.5306 54.0476C34.2685 53.8378 33.4973 53.9807 33.1255 54.2179C28.2878 57.229 24.0618 61.1219 20.6684 65.6933C12.0975 77.345 11.5488 92.4023 19.3151 104.115C22.3631 108.734 26.3468 112.483 30.7511 115.803C33.5248 117.892 33.8143 119.011 32.461 122.146C31.0386 125.444 29.6162 128.743 28.1938 132.043C27.758 133.053 27.3343 134.068 26.8284 135.26C31.2967 135.26 35.5517 135.281 39.8067 135.221C40.1724 135.221 40.6388 134.737 40.8704 134.36C42.111 132.332 43.3088 130.264 44.4975 128.209C46.2958 125.135 47.4937 124.657 50.8648 125.719C56.7206 127.57 62.7983 128.631 68.9363 128.875C76.5562 129.179 83.8714 127.899 91.025 125.287C93.6158 124.338 95.2312 124.983 96.6699 127.358C98.0384 129.608 99.3765 131.879 100.782 134.108C101.044 134.524 101.553 135.069 101.958 135.078C106.113 135.148 110.267 135.12 114.747 135.12ZM57.5795 59.9009C73.365 59.7944 85.8404 47.3673 85.7825 31.7992C85.7246 16.3284 72.9596 3.79794 57.357 3.89828C42.0165 3.99558 29.3612 16.8423 29.4496 32.2249C29.538 47.5042 42.239 60.0012 57.5795 59.9009Z" fill="black"/>
<path d="M107.85 73.5044C108.616 73.5016 109.375 73.651 110.082 73.944C110.79 74.2369 111.432 74.6676 111.971 75.2108C112.509 75.754 112.934 76.3989 113.221 77.1078C113.507 77.8166 113.649 78.5753 113.638 79.3394C113.627 80.1035 113.463 80.8578 113.157 81.5583C112.851 82.2587 112.407 82.8912 111.853 83.4188C111.299 83.9465 110.645 84.3587 109.929 84.6314C109.214 84.9041 108.451 85.0319 107.685 85.0072C106.175 84.9585 104.744 84.3201 103.7 83.2294C102.656 82.1387 102.084 80.6828 102.105 79.1752C102.127 77.6675 102.741 76.2286 103.815 75.168C104.89 74.1075 106.338 73.5101 107.85 73.5044ZM107.798 80.9115C108.892 80.7625 109.612 80.1604 109.606 79.0445C109.623 78.8016 109.587 78.5579 109.501 78.3301C109.414 78.1023 109.28 77.8958 109.106 77.7248C108.932 77.5538 108.724 77.4223 108.494 77.3394C108.265 77.2565 108.02 77.2241 107.777 77.2444C106.667 77.2444 105.975 77.9407 105.978 79.0688C105.981 80.1969 106.652 80.8081 107.798 80.9115Z" fill="black"/>
<path d="M45.5613 40.5077H49.4139C50.1272 43.7186 52.5869 44.874 55.5739 45.6372V34.25C50.1454 33.1341 45.162 31.0482 45.1285 24.6021C45.0949 17.867 50.1485 15.6017 55.9976 14.5041V10.1772H59.8319V14.65C64.3551 16.1399 68.3206 18.086 68.9149 23.5804H65.1507C64.5594 20.9685 62.6056 19.7097 60.0087 18.91V30.58C65.1293 31.6138 69.6282 33.575 69.7379 39.8174C69.8232 44.5335 66.9215 47.2275 59.6613 49.6843V53.6372H55.8177V49.6235C50.6697 48.5289 46.4543 46.5221 45.5613 40.5077ZM55.6775 18.8856C52.2272 18.688 48.7769 21.4884 48.6672 24.5048C48.5483 27.4755 51.8523 30.1634 55.6775 30.1756V18.8856ZM59.6399 45.4366C63.1146 44.9865 65.8609 42.1466 65.6444 39.2853C65.4616 36.8863 62.7489 34.8065 59.6399 34.7244V45.4366Z" fill="black"/>
<path d="M55.6775 18.8854V30.1753C51.8432 30.1753 48.5392 27.4752 48.6672 24.5045C48.7891 21.4882 52.2394 18.6877 55.6775 18.8854Z" fill="white"/>
<path d="M59.6399 45.4366V34.7305C62.7488 34.8065 65.4615 36.8863 65.6444 39.2914C65.8669 42.1466 63.1207 44.9866 59.6399 45.4366Z" fill="white"/>
</g>
<defs>
<clipPath id="clip0_36_510">
<rect width="140" height="139" fill="white"/>
</clipPath>
</defs>
</svg>
