<svg width="163" height="163" viewBox="0 0 163 163" fill="none" xmlns="http://www.w3.org/2000/svg">
<g clip-path="url(#clip0_36_391)">
<path d="M0 137.213C0.121604 137.047 0.219141 136.865 0.289708 136.672C1.2225 132.027 4.01451 128.942 8.28689 127.079C12.7025 125.169 17.1023 123.183 21.5402 121.307C22.6226 120.849 23.1893 120.276 22.9696 119.079C22.9329 118.816 22.9329 118.549 22.9696 118.286C23.253 115.319 22.7786 112.775 20.6265 110.327C19.2003 108.7 18.4362 106.17 18.1433 103.941C17.6244 99.9711 17.3538 95.8897 18.6399 91.9675C20.8334 85.2565 27.2898 81.0319 34.3828 81.5571C40.9474 82.041 46.9739 87.5837 48.015 94.2915C48.6167 98.1787 48.6867 102.107 47.7603 105.982C47.1649 108.455 45.8851 110.556 44.166 112.435C43.6705 113.01 43.3667 113.726 43.2969 114.482C43.1695 116.118 43.2969 117.771 43.2396 119.413C43.2077 120.263 43.4401 120.734 44.2806 121.091C48.327 122.81 52.3319 124.625 56.3783 126.363C56.8176 126.554 57.4479 126.681 57.8523 126.516C61.2714 125.083 64.6588 123.574 68.0557 122.087C69.6757 121.414 71.2488 120.632 72.7642 119.748H63.8597C63.8024 119.219 63.7196 118.821 63.7196 118.42C63.7196 112.053 63.6528 105.686 63.7196 99.3184C63.8374 89.3856 71.8282 81.4903 81.5828 81.5412C90.8661 81.5954 98.7901 88.9176 99.1785 98.2392C99.4682 105.278 99.2358 112.343 99.2358 119.569H90.4141L90.3249 119.888C90.7006 120.098 91.0635 120.34 91.4519 120.524C95.8134 122.454 100.162 124.402 104.552 126.255C105.257 126.536 106.039 126.553 106.755 126.303C110.713 124.653 114.613 122.861 118.56 121.187C119.49 120.792 119.894 120.273 119.757 119.276C119.703 118.801 119.703 118.322 119.757 117.847C119.983 115.15 119.474 112.887 117.573 110.63C116.106 108.882 115.163 106.281 114.966 103.976C114.648 100.219 114.6 96.2845 115.37 92.6233C116.841 85.6608 123.52 81.2165 131.008 81.538C137.433 81.8118 143.742 87.3449 144.787 93.8999C145.423 97.8858 145.688 101.989 144.468 105.88C143.765 108.131 142.173 110.101 141.036 112.228C140.619 113.02 140.299 113.859 140.081 114.727C139.935 115.329 140.161 116.016 140.034 116.637C139.365 119.821 140.826 121.314 143.762 122.342C147.55 123.67 151.154 125.526 154.847 127.118C159.091 128.958 161.717 132.122 162.704 136.646C162.792 136.947 162.898 137.243 163.022 137.531V163H157.906C157.906 154.891 157.97 146.786 157.906 138.677C157.887 136.21 156.824 133.94 154.681 132.788C150.839 130.725 146.789 129.053 142.539 127.086V134.943C139.935 134.943 137.506 134.997 135.08 134.905C134.376 134.846 133.708 134.569 133.17 134.112C132.027 133.128 131.008 132.001 129.782 130.776C128.595 132.049 127.598 133.141 126.554 134.192C126.236 134.51 125.793 134.895 125.402 134.905C122.715 134.965 120.028 134.936 117.156 134.936V127.219L110.789 130.024C114.45 133.676 114.663 138.165 114.609 142.813C114.507 149.54 114.609 156.27 114.609 163H109.516C109.516 154.891 109.544 146.786 109.516 138.677C109.516 138.04 109.49 137.315 109.169 136.831C108.166 135.318 107.322 133.329 105.87 132.562C101.095 130.072 96.1095 128.044 91.2004 125.841C87.4438 134.437 75.6517 134.58 71.7582 125.841C66.8523 128.069 61.8891 130.148 57.0659 132.526C54.7101 133.711 53.4844 136.003 53.4844 138.677C53.4334 146.786 53.4844 154.891 53.4844 163H48.3906C48.3906 156.111 48.5084 149.218 48.3906 142.332C48.3174 137.824 48.6421 133.523 52.1918 130.024C50.5427 129.289 49.0815 128.678 47.6616 127.987C46.923 127.627 46.4486 127.742 45.8947 128.356C44.1596 130.292 42.3927 132.202 40.5654 134.039C40.0623 134.536 39.4011 134.841 38.6966 134.901C35.1479 134.984 31.5972 134.984 28.0443 134.901C27.3375 134.841 26.6714 134.545 26.1532 134.061C24.1858 132.208 22.3329 130.241 20.3718 128.375C20.0153 128.057 19.213 127.783 18.8055 127.952C15.6219 129.263 12.4383 130.604 9.36295 132.09C6.68555 133.392 5.10967 135.666 5.09375 138.674C5.02689 146.783 5.09375 154.891 5.09375 163H0V137.213ZM94.2758 114.667C94.2758 109.445 94.298 104.479 94.2758 99.4903C94.2344 92.254 88.6185 86.5681 81.5414 86.5554C74.3942 86.5554 68.7656 92.2508 68.7306 99.5699C68.7115 104.078 68.7306 108.583 68.7306 113.091V114.651H76.3712C76.3712 117.178 76.3712 119.502 76.3712 121.826C76.3712 125.214 78.4183 127.401 81.5318 127.382C84.5913 127.36 86.6033 125.204 86.6256 121.906C86.6256 119.537 86.6256 117.166 86.6256 114.667H94.2758ZM41.7783 125.491C41.0111 125.118 40.4285 124.711 39.7886 124.536C38.4323 124.198 38.1968 123.355 38.2159 122.087C38.2955 118.751 38.2764 115.402 38.2159 112.072C38.1746 111.658 38.2525 111.242 38.4403 110.871C38.6282 110.501 38.9181 110.191 39.276 109.98C41.3517 108.586 42.7493 106.609 43.0231 104.138C43.3185 101.51 43.3962 98.8619 43.2555 96.2208C42.9849 91.2512 38.7603 86.9151 34.0836 86.5299C28.7797 86.0938 24.1762 89.3315 23.1097 94.5685C22.6927 96.6092 22.9601 98.7836 22.8646 100.897C22.6927 104.718 24.0425 107.812 27.1083 110.168C27.3401 110.359 27.532 110.593 27.673 110.858C27.8139 111.123 27.9012 111.413 27.9297 111.712C27.9997 115.42 27.9997 119.129 27.9297 122.839C27.9297 123.32 27.4585 123.931 27.0319 124.233C26.3411 124.72 25.5038 125 24.8034 125.328C27.0319 128.849 29.8748 130.709 34.0135 129.935C34.8826 129.776 35.8122 129.954 36.71 129.894C37.1525 129.862 37.7065 129.769 37.9835 129.486C39.2664 128.251 40.4539 126.914 41.7783 125.497V125.491ZM119.754 99.2739C119.327 103.881 120.212 107.701 124.116 110.365C124.514 110.636 124.72 111.432 124.727 111.989C124.781 115.491 124.708 118.993 124.784 122.495C124.81 123.581 124.466 124.087 123.469 124.504C122.957 124.711 122.336 125.338 122.269 125.844C122.1 127.137 122.212 128.467 122.212 130.228C125.854 129.142 127.22 125.701 130.085 123.905C131.791 125.644 133.485 127.458 135.287 129.161C135.799 129.645 136.624 129.798 137.573 130.231C137.573 128.678 137.493 127.617 137.595 126.573C137.71 125.389 137.347 124.638 136.146 124.367C135.191 124.154 134.991 123.526 135.007 122.606C135.058 119.423 135.112 116.239 134.988 113.056C134.927 111.464 135.306 110.346 136.665 109.468C137.308 108.998 137.849 108.403 138.257 107.72C141.243 103.132 140.053 98.2105 139.671 92.8876C133.555 97.5802 127.044 99.5381 119.754 99.2802V99.2739ZM120.072 94.2278C125.969 94.6221 131.798 92.7858 136.404 89.0832C130.97 84.0467 121.846 86.8897 120.06 94.2342L120.072 94.2278Z" fill="#353535"/>
<path d="M163 59.8516C161.727 62.8441 159.406 63.8342 156.27 63.6719C153.36 63.5159 150.434 63.5796 147.521 63.6719C146.712 63.7136 145.941 64.029 145.334 64.5665C141.726 68.0705 138.159 71.6277 134.634 75.2379C133.829 76.0656 133.042 76.4731 131.868 76.3872C130.451 76.2885 129.022 76.3649 127.411 76.3649V63.7069C126.71 63.6751 126.191 63.6337 125.676 63.6337C116.026 63.6337 106.373 63.605 96.7048 63.6751C95.7938 63.7205 94.927 64.0819 94.2535 64.697C90.6624 68.1544 87.1445 71.7009 83.668 75.2602C83.3286 75.6557 82.8996 75.9643 82.4167 76.1604C81.9338 76.3564 81.411 76.4342 80.8919 76.3872C79.4752 76.2948 78.049 76.3649 76.4954 76.3649V63.7642H35.6562V76.349C33.641 76.349 31.7532 76.4031 29.8685 76.3076C29.4387 76.2853 28.993 75.7855 28.6301 75.4257C25.0071 71.8378 21.3906 68.2563 17.8281 64.627C17.5122 64.2809 17.1223 64.0107 16.6873 63.8365C16.2524 63.6623 15.7837 63.5886 15.3163 63.6209C12.5083 63.6782 9.68768 63.5159 6.88612 63.6751C3.70252 63.8533 1.29572 62.9428 0 59.8548V12.7344H17.8791C17.8791 11.6774 17.8504 10.7828 17.8791 9.89461C18.0382 5.21472 21.0245 1.52175 25.5611 0.343824C25.8561 0.248973 26.1444 0.134101 26.4238 0H29.6074C29.831 0.126693 30.0654 0.233233 30.3078 0.318359C34.7426 1.44535 37.3117 4.31059 38.028 8.78354C38.2381 10.057 38.1904 11.3814 38.2573 12.6675H71.3666C71.3666 11.7124 71.3475 10.8815 71.3666 10.0442C71.4908 5.26884 74.4515 1.54086 79.0582 0.343824C79.3489 0.248488 79.6329 0.133621 79.9082 0H83.0918C83.3154 0.126693 83.5497 0.233233 83.7922 0.318359C88.2269 1.44535 90.7961 4.31377 91.5156 8.78672C91.7225 10.0602 91.6748 11.3845 91.7416 12.6675H127.398C127.398 11.7124 127.398 10.8847 127.398 10.0442C127.519 5.26884 130.483 1.53767 135.089 0.343824C135.38 0.248488 135.664 0.133621 135.939 0H139.123C139.348 0.126804 139.583 0.233345 139.827 0.318359C144.255 1.45172 146.831 4.31377 147.547 8.7899C147.754 10.0633 147.706 11.3877 147.776 12.7344H163V59.8516ZM5.10966 58.6195C9.35339 58.6195 13.4284 58.5686 17.5002 58.6641C18.3581 58.7138 19.1729 59.0565 19.8083 59.6351C22.9919 62.6818 26.0609 65.8272 29.1776 68.9375C29.5565 69.3164 29.9703 69.6634 30.6389 70.2747V58.5781H51.0489V43.3319C53.7327 43.3319 56.2223 43.3637 58.715 43.3319C59.7303 43.3439 60.7243 43.0409 61.5602 42.4644C62.396 41.888 63.0326 41.0666 63.3822 40.1133C64.6779 36.6113 62.3571 33.1571 58.6291 33.0839C56.1077 33.0362 53.5831 33.0839 50.9375 33.0839V17.7613H33.3099C33.2493 17.6046 33.2035 17.4426 33.173 17.2774C33.173 15.0488 33.173 12.8203 33.1508 10.5918C33.1317 7.21402 31.0782 5.02689 27.9615 5.05236C24.9084 5.07783 22.9028 7.23312 22.8837 10.5409C22.8837 12.9095 22.8837 15.2781 22.8837 17.8313H5.10966V58.6195ZM142.841 17.8281C142.775 17.6536 142.724 17.4736 142.689 17.2901C142.689 15.0616 142.689 12.8331 142.663 10.6046C142.641 7.21084 140.603 5.04281 137.477 5.0651C134.43 5.08738 132.415 7.25541 132.383 10.5536C132.383 12.9222 132.383 15.2908 132.383 17.8472H111.986V32.8101C111.814 32.9566 111.773 33.0171 111.735 33.0171C109.242 33.0425 106.749 33.0171 104.26 33.0903C101.353 33.1635 99.2931 35.3188 99.2899 38.184C99.2899 41.1352 101.375 43.2778 104.384 43.3223C106.905 43.3669 109.426 43.3223 112.072 43.3223V58.6514H132.447V70.1919C133.084 69.6093 133.507 69.2368 133.902 68.858C136.716 66.05 139.597 63.2994 142.31 60.3928C142.847 59.7618 143.527 59.268 144.293 58.9524C145.06 58.6368 145.89 58.5085 146.716 58.5781C150.406 58.7214 154.105 58.6195 157.858 58.6195V17.8281H142.841ZM56.0504 58.6418H81.5V69.9245L81.9043 70.1282C83.1778 68.7975 84.4194 67.4444 85.7246 66.1423C88.1887 63.656 90.6815 61.1982 93.1615 58.7309C96.7123 58.6927 100.261 58.6567 103.807 58.6227C104.848 58.6227 105.886 58.6227 107.029 58.6227V48.3588C103.874 48.4416 100.98 48.2792 98.4813 46.4486C96.3209 44.8608 94.8671 42.491 94.4305 39.8457C93.9938 37.2003 94.609 34.4891 96.1445 32.2912C98.7933 28.5346 102.715 27.8342 106.883 28.0347V17.739H86.6256C86.6256 15.0234 86.6924 12.4319 86.6065 9.85004C86.5142 7.04529 84.3143 5.05237 81.4936 5.05555C78.673 5.05873 76.5145 7.0644 76.3776 9.85959C76.333 10.8147 76.3776 11.7697 76.3776 12.7248C76.3776 14.3962 76.3776 16.0676 76.3776 17.8631H56.0886V28.0506C59.1735 27.9679 62.1374 28.1334 64.6461 30.0372C67.1547 31.941 68.4855 34.5229 68.6892 37.6428C68.861 40.05 68.1465 42.4369 66.6804 44.3538C64.0221 47.9195 60.1699 48.5594 56.0504 48.3906V58.6418Z" fill="#353535"/>
<path d="M127.344 163C127.356 158.817 127.37 154.633 127.385 150.45C127.385 146.331 127.385 142.208 127.385 137.974H132.438V163H127.344Z" fill="#353535"/>
<path d="M10.1875 163V152.956H15.2812V163H10.1875Z" fill="#353535"/>
<path d="M58.5781 163V152.956H63.6719V163H58.5781Z" fill="#353535"/>
<path d="M99.3281 163V152.956H104.422V163H99.3281Z" fill="#353535"/>
<path d="M147.719 163V152.956H152.812V163H147.719Z" fill="#353535"/>
<path d="M30.4161 150.167H20.5469V145.299H30.4161V150.167Z" fill="#353535"/>
</g>
<defs>
<clipPath id="clip0_36_391">
<rect width="163" height="163" fill="white"/>
</clipPath>
</defs>
</svg>
