<svg width="137" height="137" viewBox="0 0 137 137" fill="none" xmlns="http://www.w3.org/2000/svg">
<path d="M68.47 136.997C49.73 136.997 30.988 136.997 12.2441 136.997C4.7949 136.997 0 132.217 0 124.799C0 87.271 0 49.7414 0 12.2099C0 4.78919 4.78919 0.00285411 12.2327 0C49.7623 0 87.291 0 124.819 0C132.179 0 136.994 4.78348 136.994 12.1214C136.994 49.7442 136.994 87.369 136.994 124.996C136.994 132.131 132.122 136.983 124.979 136.983C106.141 136.992 87.3052 136.997 68.47 136.997ZM4.56657 22.8671V23.9745C4.56657 57.7481 4.56657 91.5217 4.56657 125.295C4.56657 129.528 7.51487 132.431 11.7846 132.431C49.5521 132.431 87.3214 132.431 125.093 132.431C129.545 132.431 132.422 129.556 132.425 125.113C132.425 91.4837 132.425 57.8537 132.425 24.2228V22.87L4.56657 22.8671ZM132.431 18.1978C132.431 16.2456 132.431 14.3562 132.431 12.4667C132.431 7.22945 129.773 4.56657 124.539 4.56657H58.6091C43.0066 4.56657 27.4042 4.56657 11.8017 4.56657C8.22554 4.56657 5.32291 6.54162 4.84628 9.86665C4.45526 12.5866 4.76636 15.4093 4.76636 18.1949L132.431 18.1978Z" fill="black"/>
<path d="M87.3357 107.314C77.6831 107.314 68.0314 107.309 58.3807 107.297C57.9664 107.271 57.5516 107.342 57.1702 107.507C56.7888 107.671 56.4516 107.923 56.1859 108.242C51.7478 113.117 44.0845 113.042 39.575 108.205C39.0704 107.695 38.3955 107.391 37.6799 107.348C31.9289 107.28 26.175 107.348 20.4211 107.291C17.176 107.26 14.5331 104.991 13.8367 101.803C13.5183 100.325 13.7122 98.7826 14.3865 97.4294C15.0608 96.0761 16.1753 94.9925 17.547 94.3566C18.6301 93.8936 19.7942 93.6502 20.972 93.6402C26.5346 93.5689 32.103 93.6402 37.6599 93.5717C38.3762 93.5287 39.0517 93.224 39.5579 92.7155C44.0274 87.9149 51.6165 87.7693 56.0661 92.5557C56.8452 93.3948 57.5901 93.6145 58.6348 93.6145C77.7497 93.5917 96.8636 93.5917 115.977 93.6145C119.972 93.6145 122.989 96.2603 123.257 99.9592C123.543 103.955 120.432 107.291 116.279 107.303C106.647 107.331 96.9939 107.314 87.3357 107.314ZM59.2798 102.748H115.531C115.959 102.748 116.488 102.879 116.793 102.679C117.466 102.237 118.277 101.723 118.554 101.044C118.776 100.493 118.52 99.4198 118.077 99.0116C117.429 98.4937 116.623 98.2136 115.794 98.2182C97.3545 98.1744 78.9132 98.164 60.4699 98.1868C60.0561 98.1868 59.6394 98.2296 59.294 98.2467L59.2798 102.748ZM47.9033 107.314C49.2613 107.323 50.5914 106.928 51.7245 106.18C52.8576 105.431 53.7427 104.363 54.2672 103.11C54.7917 101.858 54.9321 100.477 54.6704 99.1447C54.4087 97.8121 53.7568 96.5873 52.7976 95.626C51.8383 94.6647 50.6149 94.0103 49.2829 93.7458C47.9508 93.4814 46.5702 93.6188 45.3165 94.1407C44.0627 94.6626 42.9924 95.5454 42.2415 96.677C41.4905 97.8085 41.0929 99.1377 41.0991 100.496C41.1169 102.297 41.8398 104.02 43.1129 105.294C44.3859 106.569 46.1077 107.294 47.909 107.314H47.9033ZM36.6068 98.1811C31.4351 98.1811 26.3148 98.1811 21.1946 98.1811C19.3423 98.1811 18.232 99.0801 18.272 100.519C18.3119 101.957 19.348 102.739 21.166 102.742C25.8182 102.742 30.4695 102.742 35.1198 102.742H36.6068V98.1811Z" fill="black"/>
<path d="M109.558 41.0992C113.172 41.0913 116.708 42.1558 119.717 44.1582C122.726 46.1605 125.073 49.0105 126.462 52.3475C127.851 55.6845 128.218 59.3585 127.518 62.9045C126.818 66.4504 125.081 69.7089 122.528 72.2675C119.975 74.8261 116.72 76.5697 113.176 77.2778C109.632 77.9858 105.957 77.6264 102.617 76.2451C99.2767 74.8637 96.4215 72.5225 94.4126 69.5178C92.4037 66.5131 91.3314 62.9799 91.3314 59.3655C91.3419 54.5311 93.2643 49.8971 96.679 46.4749C100.094 43.0528 104.723 41.1203 109.558 41.0992ZM109.581 73.0652C112.291 73.0691 114.942 72.269 117.197 70.7661C119.453 69.2631 121.212 67.1249 122.252 64.622C123.292 62.119 123.566 59.3638 123.039 56.705C122.513 54.0462 121.21 51.6033 119.295 49.6854C117.38 47.7674 114.939 46.4607 112.281 45.9305C109.623 45.4002 106.867 45.6704 104.363 46.7067C101.858 47.743 99.7173 49.4989 98.2111 51.7522C96.7048 54.0056 95.9009 56.6551 95.9008 59.3655C95.9099 62.9926 97.3534 66.4689 99.9163 69.0356C102.479 71.6023 105.953 73.0509 109.581 73.0652Z" fill="black"/>
<path d="M68.4729 77.6317C64.8587 77.6266 61.3273 76.5494 58.3255 74.5366C55.3237 72.5237 52.9865 69.6656 51.6097 66.3239C50.2329 62.9822 49.8783 59.3072 50.5909 55.764C51.3035 52.2208 53.0512 48.9685 55.6128 46.4189C58.1744 43.8693 61.4348 42.1369 64.9813 41.441C68.5278 40.745 72.2011 41.1168 75.5363 42.5093C78.8715 43.9018 81.7186 46.2523 83.7174 49.2635C85.7161 52.2747 86.7767 55.8112 86.7648 59.4253C86.737 64.2602 84.7981 68.8878 81.3713 72.2986C77.9445 75.7094 73.3078 77.6265 68.4729 77.6317ZM68.5271 73.0651C71.2365 73.0595 73.8834 72.2505 76.1331 70.7406C78.3828 69.2307 80.1343 67.0876 81.166 64.5823C82.1978 62.0771 82.4635 59.3221 81.9296 56.6658C81.3957 54.0095 80.0861 51.5712 78.1665 49.6591C76.2469 47.7471 73.8034 46.4471 71.145 45.9238C68.4866 45.4004 65.7327 45.677 63.2315 46.7187C60.7303 47.7603 58.5942 49.5203 57.0932 51.7759C55.5922 54.0316 54.7938 56.6817 54.7988 59.3911C54.8124 63.0229 56.2649 66.5012 58.838 69.0642C61.4112 71.6272 64.8953 73.0659 68.5271 73.0651Z" fill="black"/>
<path d="M9.13314 59.3053C9.14504 55.6915 10.2286 52.1624 12.2467 49.1646C14.2649 46.1668 17.1269 43.835 20.4706 42.4642C23.8143 41.0935 27.4895 40.7453 31.0312 41.4638C34.5728 42.1824 37.8218 43.9353 40.3669 46.5008C42.9121 49.0663 44.639 52.3291 45.3293 55.8764C46.0196 59.4237 45.6421 63.096 44.2447 66.4287C42.8473 69.7614 40.4928 72.6047 37.479 74.5989C34.4652 76.593 30.9276 77.6484 27.3138 77.6315C17.2987 77.603 9.11602 69.3546 9.13314 59.3053ZM27.3566 73.0649C30.0661 73.0734 32.7173 72.2782 34.9749 70.7799C37.2325 69.2816 38.9951 67.1475 40.0398 64.6474C41.0845 62.1474 41.3644 59.3937 40.8441 56.7346C40.3238 54.0755 39.0267 51.6304 37.1167 49.7084C35.2068 47.7865 32.7698 46.4741 30.114 45.9372C27.4582 45.4003 24.7028 45.663 22.1963 46.6921C19.6898 47.7211 17.5447 49.4703 16.0323 51.7185C14.52 53.9667 13.7082 56.6129 13.6997 59.3224C13.6959 62.9535 15.1308 66.4382 17.6903 69.0138C20.2499 71.5894 23.7256 73.0461 27.3566 73.0649Z" fill="black"/>
<path d="M18.2035 9.20752V13.6H13.7882V9.20752H18.2035Z" fill="black"/>
<path d="M27.3281 9.21582V13.5912H22.9299V9.21582H27.3281Z" fill="black"/>
<path d="M36.4698 9.22998V13.6253H32.0773V9.22998H36.4698Z" fill="black"/>
<path d="M118.751 68.4503H114.324C113.445 65.3108 111.89 63.8837 109.472 63.9379C107.129 64.0007 105.659 65.4421 104.906 68.4503H100.502C100.539 65.4221 101.726 63.0275 104.095 61.2522C107.109 59.006 110.405 58.7007 113.753 60.396C116.944 62.0228 118.505 64.7628 118.751 68.4503Z" fill="black"/>
<path d="M107.263 52.6299V56.9938H102.822V52.6299H107.263Z" fill="black"/>
<path d="M111.975 52.584H116.379V56.9736H111.975V52.584Z" fill="black"/>
<path d="M61.7115 66.1156V61.6489H75.2342V66.1156H61.7115Z" fill="black"/>
<path d="M66.1354 57.0165H61.7543V52.6069H66.1354V57.0165Z" fill="black"/>
<path d="M75.2799 52.5957V56.9768H70.8732V52.5957H75.2799Z" fill="black"/>
<path d="M18.3548 59.4424H22.7101C23.4522 62.4392 25.0334 63.9376 27.4223 63.9262C29.8111 63.9148 31.4351 62.3479 32.0402 59.4452H36.3642C36.915 63.7892 32.7024 68.2644 27.8761 68.4842C22.6645 68.7211 18.1807 64.5027 18.3548 59.4424Z" fill="black"/>
<path d="M20.6124 57.0077V52.6152H25.0305V57.0077H20.6124Z" fill="black"/>
<path d="M29.7112 56.9651V52.624H34.1551V56.9651H29.7112Z" fill="black"/>
</svg>
