<svg width="144" height="126" viewBox="0 0 144 126" fill="none" xmlns="http://www.w3.org/2000/svg">
<g clip-path="url(#clip0_36_519)">
<path d="M49.6491 65.3784V80.8777H98.8678V36.152H94.5V76.4783H89.9353V45.145H85.4606V76.4389H80.9016V40.6358H76.4803V76.4445H71.9185V51.882H67.5V76.453H62.9297V58.6274H58.5V76.4586H53.9438V65.3784H49.6491ZM119.36 38.2983C115.191 38.2818 111.185 39.9191 108.221 42.8513C105.257 45.7836 103.577 49.7715 103.548 53.941C103.469 62.5824 110.602 69.7413 119.244 69.7244C123.411 69.7397 127.413 68.0989 130.37 65.1629C133.327 62.227 134.997 58.2364 135.013 54.069C135.028 49.9016 133.387 45.8989 130.452 42.9413C127.516 39.9837 123.526 38.3136 119.36 38.2983ZM89.9128 87.927H49.6491V92.1464H89.9128V87.927ZM89.9128 96.9284H49.6406V101.167H89.9044L89.9128 96.9284ZM132.663 27.1675H105.899V31.3869H132.663V27.1675ZM132.593 80.9452V76.6555H105.874V80.9368L132.593 80.9452ZM71.8875 31.4375V27.1506H49.6378V31.4319L71.8875 31.4375ZM67.4128 18.1633H49.6463V22.3827H67.4128V18.1633ZM121.632 9.11402V13.3897H125.89V9.11402H121.632ZM130.632 9.11402V13.3784H134.871V9.1084L130.632 9.11402Z" fill="white"/>
<path d="M0 43.6174C0.143437 43.128 0.295309 42.6413 0.427497 42.1519C1.7775 37.1786 6.15937 33.8368 11.4694 33.8143C19.0153 33.7862 26.5612 33.8143 34.1072 33.8143H35.9606V18.1378H40.4606V19.6174C40.4606 46.5729 40.4606 73.5312 40.4606 100.492C40.5171 103.148 39.7444 105.756 38.25 107.952C38.79 108 39.1725 108.062 39.5578 108.062C70.5403 108.062 101.522 108.062 132.502 108.062C136.597 108.062 139.517 105.156 139.517 101.069C139.517 69.2808 139.517 37.4946 139.517 5.71026C139.517 5.34739 139.486 4.98452 139.466 4.54852H40.545V8.99859H116.857V13.3643H36.1378V0.0365696H141.044C142.028 0.0365696 143.013 0.0112518 143.994 0V102.689C143.908 102.799 143.838 102.92 143.786 103.049C142.203 109.412 138.262 112.495 131.692 112.498H107.963C107.963 114.653 107.963 116.655 107.963 118.658C107.963 123.221 105.151 126.003 100.581 126.003H15.8906V121.57H86.9934C91.634 121.57 96.2747 121.57 100.915 121.57C102.206 121.57 103.32 121.058 103.421 119.812C103.612 117.412 103.477 114.985 103.477 112.498H30.0713C22.7588 112.498 18.0337 107.75 18.0309 100.436C18.0309 87.0258 18.0309 73.6174 18.0309 60.211V58.5823H13.4634V89.0323C13.4634 99.0211 13.4859 109.004 13.4634 118.993C13.4494 123.966 8.87344 127.229 4.40719 125.541C1.98844 124.63 0.793125 122.698 0 120.411V43.6174ZM20.1712 38.3207C22.7025 41.5724 22.4747 45.2067 22.4719 48.8129C22.455 66.1575 22.4484 83.504 22.4522 100.852C22.4522 102.937 23.0287 104.751 24.5588 106.169C26.6737 108.138 29.1516 108.681 31.8319 107.544C34.5122 106.408 36.0169 104.25 36.0197 101.286C36.0459 80.5673 36.0459 59.8453 36.0197 39.1195C36.0034 38.8504 35.9696 38.5826 35.9184 38.3179L20.1712 38.3207ZM18 54.0394C18 50.647 18.1491 47.4149 17.9606 44.1941C17.7666 40.8889 14.7206 38.2729 11.3991 38.2222C7.42219 38.1575 4.46344 41.218 4.46344 45.4346C4.46344 69.6709 4.46344 93.9081 4.46344 118.146C4.46344 120.484 5.23407 121.603 6.81469 121.558C8.34469 121.516 9.03656 120.456 9.03656 118.158V54.0225L18 54.0394Z" fill="#353535"/>
<path d="M49.6491 65.3783H53.9437V76.4585H58.5V58.6272H62.9241V76.4528H67.5V51.8818H71.9269V76.4444H76.4887V40.6357H80.91V76.4388H85.4691V45.1448H89.9437V76.4782H94.5V36.1519H98.8622V80.8776H49.6434L49.6491 65.3783Z" fill="#353535"/>
<path d="M119.36 38.298C123.526 38.3125 127.517 39.9819 130.453 42.939C133.389 45.8961 135.03 49.8985 135.015 54.0659C135.001 58.2333 133.332 62.2242 130.375 65.1606C127.419 68.0971 123.417 69.7387 119.25 69.7241C110.607 69.741 103.475 62.5821 103.553 53.9407C103.582 49.7722 105.262 45.7851 108.225 42.853C111.188 39.9209 115.192 38.283 119.36 38.298ZM130.168 56.2136H117.037V43.0771C111.693 43.7382 107.677 49.0574 107.983 54.8352C108.264 60.4611 113.214 65.1868 118.898 65.2994C124.487 65.4063 129.69 61.2741 130.168 56.2136ZM121.556 43.0996V51.7438H130.143C129.878 47.7916 125.618 43.5047 121.556 43.0996Z" fill="#353535"/>
<path d="M89.9128 87.9268V92.1462H49.649V87.9268H89.9128Z" fill="#353535"/>
<path d="M89.9044 96.9199V101.159H49.6406V96.9199H89.9044Z" fill="#353535"/>
<path d="M132.663 27.1587V31.3781H105.899V27.1587H132.663Z" fill="black"/>
<path d="M132.593 80.9366H105.874V76.6553H132.593V80.9366Z" fill="#353535"/>
<path d="M71.8875 31.4317H49.6378V27.1504H71.8875V31.4317Z" fill="#353535"/>
<path d="M67.4128 18.1577V22.3771H49.6462V18.1577H67.4128Z" fill="#353535"/>
<path d="M121.632 9.1084H125.89V13.3841H121.632V9.1084Z" fill="#353535"/>
<path d="M130.643 9.1084H134.882V13.3728H130.643V9.1084Z" fill="#353535"/>
</g>
<defs>
<clipPath id="clip0_36_519">
<rect width="144" height="126" fill="white"/>
</clipPath>
</defs>
</svg>
